<?xml version="1.0" encoding="UTF-8"?>
<svg width="44px" height="44px" viewBox="0 0 44 44" version="1.1" xmlns="http://www.w3.org/2000/svg" xmlns:xlink="http://www.w3.org/1999/xlink">
    <!-- Generator: Sketch 48.1 (47250) - http://www.bohemiancoding.com/sketch -->
    <title>icon/already</title>
    <desc>Created with Sketch.</desc>
    <defs></defs>
    <g id="Symbols" stroke="none" stroke-width="1" fill="none" fill-rule="evenodd">
        <g id="icon/already" fill="#666666" fill-rule="nonzero">
            <g id="收货" transform="translate(5.000000, 5.000000)">
                <path d="M33.8660708,8.28413285 L30.8752486,2.52935259 C30.1363495,1.11120431 28.3054564,3.93114725e-08 26.7060459,0 L8.31659916,0 C6.72054348,0 4.88294072,1.10449514 4.13733195,2.51257968 L1.14902592,8.1499497 C0.504061755,9.37017781 0,11.4030527 0,12.780946 L0,31.7192217 C0.00138812152,33.5308977 1.47004629,34.999075 3.28185281,35 L31.7189859,35 C33.5302734,34.9981509 34.9981508,33.5303791 35,31.7192217 L35,12.9159678 C34.9991613,11.5397518 34.5018092,9.50436096 33.8660708,8.28413285 Z M3.08475714,9.17309627 L6.07138578,3.53740355 C6.44544824,2.83294196 7.51563586,2.18718549 8.31659916,2.18718553 L26.7068846,2.18718553 C27.5036544,2.18718553 28.5654549,2.832942 28.9353239,3.53908086 L31.9253073,9.29218385 C32.0670485,9.56558205 32.1987252,9.91613554 32.3211761,10.2918484 L2.64611441,10.2918484 C2.77862982,9.87168736 2.92372577,9.47416975 3.08475714,9.17309627 Z M32.8126573,31.7192217 C32.8126573,32.3213687 32.3228535,32.8128145 31.7181472,32.8128145 L3.28101412,32.8128145 C2.67718779,32.812352 2.18780527,32.3230047 2.18734273,31.7192217 L2.18734273,12.780946 C2.18734273,12.6937269 2.20411684,12.5779939 2.21250388,12.4798725 L32.7757542,12.4798725 C32.7891735,12.6249581 32.8126573,12.7876552 32.8126573,12.9159678 L32.8126573,31.7192217 Z" id="Shape"></path>
                <path d="M26.8885123,18.4429912 L21.4049973,24.2645198 L19.1932294,22.069626 C18.9183035,21.7962369 18.5175106,21.6893872 18.1418256,21.7893262 C17.7661406,21.8892653 17.472639,22.1808099 17.37188,22.5541381 C17.271121,22.9274662 17.3784122,23.3258605 17.6533382,23.5992496 L20.6379729,26.5572962 C20.8508034,26.7688222 21.1270657,26.875 21.4058319,26.875 C21.5568998,26.875 21.7046292,26.8360128 21.8481855,26.7729698 C22.006765,26.7182219 22.1561637,26.6336115 22.2796888,26.5050368 L28.4793159,19.922844 C28.8673579,19.4832955 28.834396,18.8170061 28.404841,18.4174104 C27.9752859,18.0178147 27.3041745,18.0291365 26.8885123,18.4429912 Z M14.4909275,20.0240447 L7.95744871,20.0240447 C7.36787236,20.0402698 6.89840506,20.5199582 6.89840506,21.1061456 C6.89840506,21.692333 7.36787236,22.1720214 7.95744871,22.1882465 L14.4909275,22.1882465 C15.0922408,22.1882465 15.5797015,21.7037734 15.5797015,21.1061456 C15.5797015,20.5085178 15.0922408,20.0240447 14.4909275,20.0240447 Z M11.1874644,24.6386306 L7.92155966,24.6386306 C7.33705039,24.6613859 6.875,25.1389444 6.875,25.7203167 C6.875,26.301689 7.33705039,26.7792475 7.92155966,26.8020028 L11.1874644,26.8020028 C11.7884666,26.8018895 12.2756148,26.3176353 12.2756148,25.7203167 C12.2756148,25.122998 11.7884666,24.6387438 11.1874644,24.6386306 Z" id="Shape"></path>
            </g>
        </g>
    </g>
</svg>