<?xml version="1.0" encoding="UTF-8"?>
<svg width="44px" height="44px" viewBox="0 0 44 44" version="1.1" xmlns="http://www.w3.org/2000/svg" xmlns:xlink="http://www.w3.org/1999/xlink">
    <!-- Generator: Sketch 48.2 (47327) - http://www.bohemiancoding.com/sketch -->
    <title>icon/discover</title>
    <desc>Created with Sketch.</desc>
    <defs></defs>
    <g id="Symbols" stroke="none" stroke-width="1" fill="none" fill-rule="evenodd">
        <g id="icon/discover" fill="#666666" fill-rule="nonzero">
            <g id="星球" transform="translate(2.000000, 2.000000)">
                <path d="M36.8253968,9.14893614 C38.941799,5.63829784 40,2.65957445 38.6243386,1.27659575 C37.4603175,0.106382962 35.4497355,0.425531898 32.1693122,2.34042552 C31.6402116,2.65957445 31.4285714,3.29787233 31.7460317,3.82978724 C32.0634921,4.36170215 32.6984127,4.46808511 33.2275132,4.25531913 C36.2962963,2.55319149 37.1428571,2.87234043 37.1428571,2.87234043 C37.8835979,4.04255321 33.5449736,12.0212766 22.7513228,22.7659574 C12.0634921,33.6170213 4.12698413,37.8723404 2.96296295,37.2340425 C2.85714286,37.0212766 2.96296295,35.3191489 5.3968254,31.4893617 C5.60846563,31.0638298 5.60846563,30.6382978 5.3968254,30.3191489 C3.28042326,27.3404256 2.22222222,23.7234042 2.22222222,20.106383 C2.22222222,10.212766 10.2645502,2.12765954 20.1058201,2.12765954 C22.8571429,2.12765954 25.3968254,2.76595741 27.8306878,3.9361702 C28.3597884,4.14893617 28.994709,3.9361702 29.2063492,3.40425529 C29.4179894,2.87234038 29.2063492,2.2340425 28.6772487,2.02127658 C25.9259259,0.744680835 23.0687831,0 20,0 C8.99470898,0 0,9.04255318 0,20.106383 C0,24.0425532 1.16402118,27.7659575 3.17460317,30.9574468 C0.634920635,35 0.105820089,37.4468085 1.37566136,38.7234043 C1.79894177,39.0425532 2.32804231,39.3617021 3.17460317,39.3617021 C4.33862436,39.3617021 6.24338626,38.7234043 9.20634921,36.8085106 C12.3809524,38.9361702 16.1904762,40 20,40 C31.005291,40 40,30.9574468 40,19.893617 C40,16.1702127 38.941799,12.3404255 36.8253968,9.14893614 Z M20.1058201,37.9787234 C16.9312169,37.9787234 13.968254,37.1276596 11.2169312,35.6382979 C15.1322751,32.8723404 19.7883598,28.9361702 24.3386244,24.3617021 C27.8306878,20.8510638 32.4867725,15.7446808 35.5555556,11.1702128 C37.1428571,13.8297872 37.8835979,16.9148936 37.8835979,20.106383 C37.8835979,29.8936171 29.9470899,37.9787234 20.1058201,37.9787234 Z" id="Shape"></path>
                <path d="M10.4859155,16.9704142 C8.58450704,16.9704142 7,18.5680473 7,20.4852071 C7,22.4023669 8.58450704,24 10.4859155,24 C12.3873239,24 14.0774648,22.4023669 14.0774648,20.4852071 C14.0774648,18.5680473 12.4929577,16.9704142 10.4859155,16.9704142 Z M10.4859155,21.9763314 C9.74647889,21.9763314 9.11267608,21.3372781 9.11267608,20.591716 C9.11267608,19.8461538 9.74647889,19.2071006 10.4859155,19.2071006 C11.2253521,19.2071006 11.9647888,19.8461538 11.9647888,20.591716 C11.9647888,21.3372781 11.3309859,21.9763313 10.4859155,21.9763314 Z M17.9859155,14.0946745 C20.2042254,14.0946745 22,12.2840236 22,10.0473372 C22,7.81065086 20.2042253,5.99999995 17.9859155,6 C15.7676057,6 13.971831,7.81065091 13.971831,10.0473372 C13.971831,12.1775148 15.7676057,14.0946745 17.9859155,14.0946745 Z M17.9859155,8.02366862 C19.0422535,8.02366862 19.887324,8.87573965 19.887324,9.94082839 C19.887324,11.0059171 19.0422535,11.8579882 17.9859155,11.8579882 C16.9295775,11.8579882 16.0845071,11.0059171 16.0845071,9.94082839 C16.0845071,8.87573965 16.9295775,8.02366862 17.9859155,8.02366862 Z" id="Shape"></path>
                <path d="M24,29 C24,30.1045695 24.8954305,31 26,31 C27.1045695,31 28,30.1045695 28,29 C28,27.8954305 27.1045695,27 26,27 C24.8954305,27 24,27.8954305 24,29 Z" id="Shape"></path>
            </g>
        </g>
    </g>
</svg>