<?xml version="1.0" encoding="UTF-8"?>
<svg width="44px" height="44px" viewBox="0 0 44 44" version="1.1" xmlns="http://www.w3.org/2000/svg" xmlns:xlink="http://www.w3.org/1999/xlink">
    <!-- Generator: Sketch 48.1 (47250) - http://www.bohemiancoding.com/sketch -->
    <title>icon/obligation</title>
    <desc>Created with Sketch.</desc>
    <defs></defs>
    <g id="Symbols" stroke="none" stroke-width="1" fill="none" fill-rule="evenodd">
        <g id="icon/obligation" fill="#666666" fill-rule="nonzero">
            <path d="M9,14 C8.44771525,14 8,14.4477153 8,15 L8,33 C8,33.5522847 8.44771525,34 9,34 L35,34 C35.5522847,34 36,33.5522847 36,33 L36,15 C36,14.4477153 35.5522847,14 35,14 L9,14 Z M9,12 L35,12 C36.6568542,12 38,13.3431458 38,15 L38,33 C38,34.6568542 36.6568542,36 35,36 L9,36 C7.34314575,36 6,34.6568542 6,33 L6,15 C6,13.3431458 7.34314575,12 9,12 Z" id="Rectangle"></path>
            <path d="M9.64300181,10.8123313 C9.09071706,10.8123313 8.64300181,10.3646161 8.64300181,9.81233134 C8.64300181,9.26004659 9.09071706,8.81233134 9.64300181,8.81233134 L33.5594697,8.81233134 C35.2163239,8.81233134 36.5594697,10.1554771 36.5594697,11.8123313 L36.5594697,15.8064712 C36.5594697,16.358756 36.1117544,16.8064712 35.5594697,16.8064712 C35.0071849,16.8064712 34.5594697,16.358756 34.5594697,15.8064712 L34.5594697,11.8123313 C34.5594697,11.2600466 34.1117544,10.8123313 33.5594697,10.8123313 L9.64300181,10.8123313 Z" id="Rectangle-Copy-2" transform="translate(22.601236, 12.809401) rotate(347.000000) translate(-22.601236, -12.809401) "></path>
            <path d="M36,21 L30,21 L30,27 L36,27 L36,21 Z M30,19 L37,19 C37.5522847,19 38,19.4477153 38,20 L38,28 C38,28.5522847 37.5522847,29 37,29 L30,29 C28.8954305,29 28,28.1045695 28,27 L28,21 C28,19.8954305 28.8954305,19 30,19 Z" id="Rectangle-Copy"></path>
        </g>
    </g>
</svg>