<?xml version="1.0" encoding="UTF-8"?>
<svg width="64px" height="64px" viewBox="0 0 64 64" version="1.1" xmlns="http://www.w3.org/2000/svg" xmlns:xlink="http://www.w3.org/1999/xlink">
    <!-- Generator: Sketch 48.1 (47250) - http://www.bohemiancoding.com/sketch -->
    <title>icon/service</title>
    <desc>Created with Sketch.</desc>
    <defs></defs>
    <g id="Symbols" stroke="none" stroke-width="1" fill="none" fill-rule="evenodd">
        <g id="icon/service" fill="#666666" fill-rule="nonzero">
            <g>
                <path d="M5.81818182,20.3636364 L21.8181818,20.3636364 C22.6215051,20.3636364 23.2727273,19.7124142 23.2727273,18.9090909 C23.2727273,18.1057676 22.6215051,17.4545455 21.8181818,17.4545455 L5.81818182,17.4545455 C5.01485855,17.4545455 4.36363636,18.1057676 4.36363636,18.9090909 C4.36363636,19.7124142 5.01485855,20.3636364 5.81818182,20.3636364 Z" id="Line"></path>
                <path d="M1.45454545,43.6363636 L17.4545455,43.6363636 C18.2578687,43.6363636 18.9090909,42.9851415 18.9090909,42.1818182 C18.9090909,41.3784949 18.2578687,40.7272727 17.4545455,40.7272727 L1.45454545,40.7272727 C0.651222182,40.7272727 0,41.3784949 0,42.1818182 C0,42.9851415 0.651222182,43.6363636 1.45454545,43.6363636 Z" id="Line-Copy-2"></path>
                <path d="M8.72727273,55.2727273 L14.5454545,55.2727273 C15.3487778,55.2727273 16,54.6215051 16,53.8181818 C16,53.0148585 15.3487778,52.3636364 14.5454545,52.3636364 L8.72727273,52.3636364 C7.92394945,52.3636364 7.27272727,53.0148585 7.27272727,53.8181818 C7.27272727,54.6215051 7.92394945,55.2727273 8.72727273,55.2727273 Z" id="Line-Copy-3"></path>
                <path d="M11.6363636,32 L20.3636364,32 C21.1669596,32 21.8181818,31.3487778 21.8181818,30.5454545 C21.8181818,29.7421313 21.1669596,29.0909091 20.3636364,29.0909091 L11.6363636,29.0909091 C10.8330404,29.0909091 10.1818182,29.7421313 10.1818182,30.5454545 C10.1818182,31.3487778 10.8330404,32 11.6363636,32 Z" id="Line-Copy"></path>
                <path d="M58.8833012,32.2257053 C58.9998457,32.2257053 59.3690255,31.8796855 59.4359403,31.4632445 L60.6996286,23.5987461 L29.2043844,23.5987461 C29.0878399,23.5987461 28.7186601,23.9447659 28.6517453,24.3612069 L27.388057,32.2257053 L58.8833012,32.2257053 Z M29.2043844,20.6896552 L61.2043844,20.6896552 C62.811031,20.6896552 63.8825455,22.1268352 63.5976791,23.8996865 L62.3081884,31.9247649 C62.023322,33.6976163 60.4899477,35.1347962 58.8833012,35.1347962 L26.8833012,35.1347962 C25.2766547,35.1347962 24.2051401,33.6976163 24.4900066,31.9247649 L25.7794972,23.8996865 C26.0643637,22.1268352 27.5977379,20.6896552 29.2043844,20.6896552 Z" id="Rectangle-7"></path>
                <path d="M41.3101227,22.1442006 C37.5552817,22.1442006 35.0518277,18.7864169 35.685733,14.8413401 C36.293225,11.0606451 39.5587271,8 43.1154096,8 C46.8702506,8 49.3737046,11.3577837 48.7397993,15.3028605 L47.8371558,20.9204154 C47.7238424,21.6256156 47.1152777,22.1442006 46.4010317,22.1442006 L41.3101227,22.1442006 Z M41.3101227,19.2351097 L46.4010317,19.2351097 L44.9649077,20.458895 L45.8675512,14.8413401 C46.2306784,12.5814372 44.9838315,10.9090909 43.1154096,10.9090909 C41.0488292,10.9090909 38.9475215,12.8785758 38.5579811,15.3028605 C38.1948539,17.5627634 39.4417007,19.2351097 41.3101227,19.2351097 Z" id="Oval-9"></path>
                <path d="M51.4919408,19.2351097 C53.5585213,19.2351097 55.6598289,17.2656248 56.0493694,14.8413401 C56.4124965,12.5814372 55.1656497,10.9090909 53.2972278,10.9090909 C51.2306474,10.9090909 49.1293397,12.8785758 48.7397993,15.3028605 L48.1079551,19.2351097 L51.4919408,19.2351097 Z M51.4919408,22.1442006 L46.4010317,22.1442006 C45.505641,22.1442006 44.8228561,21.3429459 44.9649077,20.458895 L45.8675512,14.8413401 C46.4750432,11.0606451 49.7405453,8 53.2972278,8 C57.0520688,8 59.5555227,11.3577837 58.9216174,15.3028605 C58.3141254,19.0835556 55.0486233,22.1442006 51.4919408,22.1442006 Z" id="Oval-9-Copy"></path>
                <path d="M28.1095596,53.5152823 C28.1270807,53.4140293 27.8676415,53.0909091 27.6363636,53.0909091 L28.1829944,53.0909091 L28.1095596,53.5152823 Z M28.1829944,53.0909091 L31.2043373,35.6308219 C31.2331751,35.4641707 31.2472167,35.2983802 31.247411,35.1347962 L28.3378467,35.1347962 L25.243069,53.0192566 C24.9582026,54.6654757 26.0297171,56 27.6363636,56 L50.9090909,56 C52.5157375,56 54.0491117,54.6654757 54.3339781,53.0192566 L57.4287557,35.1347962 L54.4764314,35.1347962 L51.4674875,52.523231 C51.4205653,52.7943904 51.079864,53.0909091 50.9090909,53.0909091 L28.1829944,53.0909091 Z M27.6363636,53.0909091 C27.8676415,53.0909091 28.1270807,53.4140293 28.1095596,53.5152823 L28.1829944,53.0909091 L27.6363636,53.0909091 Z M50.9090909,53.0909091 C51.079864,53.0909091 51.4205653,52.7943904 51.4674875,52.523231 L54.4764314,35.1347962 L57.4287557,35.1347962 L54.3339781,53.0192566 C54.0491117,54.6654757 52.5157375,56 50.9090909,56 L27.6363636,56 C26.0297171,56 24.9582026,54.6654757 25.243069,53.0192566 L28.3378467,35.1347962 L31.247411,35.1347962 C31.2472167,35.2983802 31.2331751,35.4641707 31.2043373,35.6308219 L28.1829944,53.0909091 L50.9090909,53.0909091 Z" id="Rectangle-7-Copy"></path>
                <path d="M55.445113,34.6520496 C55.587073,33.8613691 56.3431275,33.3354772 57.133808,33.4774372 C57.9244885,33.6193972 58.4503804,34.3754517 58.3084204,35.1661322 L55.0897093,53.0895706 C54.781078,55.1788055 52.6720498,56.7272727 50.3877818,56.7272727 L28.5696,56.7272727 C26.1394454,56.7272727 24.2385857,54.9450405 24.5827624,52.619964 L27.8087494,34.6520496 C27.9507094,33.8613691 28.7067639,33.3354772 29.4974443,33.4774372 C30.2881248,33.6193972 30.8140167,34.3754517 30.6720567,35.1661322 L27.4533457,53.0895706 C27.3993315,53.4552115 27.7864616,53.8181818 28.5696,53.8181818 L50.3877818,53.8181818 C51.316807,53.8181818 52.1295665,53.2214466 52.219126,52.619964 L55.445113,34.6520496 Z" id="Rectangle-5"></path>
            </g>
        </g>
    </g>
</svg>