<?xml version="1.0" encoding="UTF-8"?>
<svg width="40px" height="40px" viewBox="0 0 40 40" version="1.1" xmlns="http://www.w3.org/2000/svg" xmlns:xlink="http://www.w3.org/1999/xlink">
    <!-- Generator: Sketch 47 (45396) - http://www.bohemiancoding.com/sketch -->
    <title>主页-点击</title>
    <desc>Created with Sketch.</desc>
    <defs></defs>
    <g id="icon" stroke="none" stroke-width="1" fill="none" fill-rule="evenodd">
        <g id="主页-点击">
            <path d="M37.6,28.1974634 L37.6,16.5207281 C37.6,16.2135412 37.458814,15.9233988 37.2170913,15.7338365 L20.7170913,2.79430777 C20.3547608,2.51016321 19.8452392,2.51016321 19.4829087,2.79430777 L2.98290872,15.7338365 C2.741186,15.9233988 2.6,16.2135412 2.6,16.5207281 L2.6,36.6 C2.6,37.1522847 3.04771525,37.6 3.6,37.6 L36.6,37.6 C37.1522847,37.6 37.6,37.1522847 37.6,36.6 L37.6,32.4" id="Path" stroke="#666666" stroke-width="2" stroke-linecap="round" stroke-linejoin="round"></path>
            <path d="M19.4829087,6.95625964 L6.90758351,16.818004 L6.90758351,16.818004 C6.66586079,17.0075663 6.52467479,17.2977087 6.52467479,17.6048956 L6.52467479,33.9 L6.52467479,33.9 C6.52467479,34.4522847 6.97239004,34.9 7.52467479,34.9 L32.6753252,34.9 L32.6753252,34.9 C33.22761,34.9 33.6753252,34.4522847 33.6753252,33.9 L33.6753252,17.6048956 L33.6753252,17.6048956 C33.6753252,17.2977087 33.5341392,17.0075663 33.2924165,16.818004 L20.7170913,6.95625964 L20.7170913,6.95625964 C20.3547608,6.67211508 19.8452392,6.67211508 19.4829087,6.95625964 Z" id="Path" fill="#E1F433"></path>
            <path d="M19.6666667,26 L19.6666667,30.4194174" id="Line-3" stroke="#666666" stroke-width="3" stroke-linecap="round" stroke-linejoin="round"></path>
        </g>
    </g>
</svg>